# xmcd CD database file
#
# Track frame offsets:
#	150
#	23237
#	43935
#	71246
#	117983
#	131489
#	155739
#	173403
#	190096
#	215152
#	235324
#	267875
#	284885
#	301498
#	325691
#	346988
#
# Disc length: 4862 seconds
#
# Revision: 2
# Processed by: cddbd v1.4b41PL1 Copyright (c) Steve Scherf et al.
# Submitted via: Feurio! 1.50.2ß - http://www.feurio.com
#
DISCID=f912fc10
DTITLE=Various Artist - Odysee 2001 - Myke´s Spring Collection I
DYEAR=1900
DGENRE=
TTITLE0=yonderboi - another geometry
TTITLE1=Tosca - Ocean Beat
TTITLE2=Moby - Whispering Wind
TTITLE3=Kruder   Dorfmeister - Thievery Corporation - Shoalin
TTITLE4=Thievery Corporation - DJ Cam - Success (Thievery Cor
TTITLE5=Kid Loco - Cornu - Youpi
TTITLE6=lemongrass - la mer
TTITLE7=Thievery Corporation - Tomorrow
TTITLE8=Walkner.Moestl - Heaven or hell
TTITLE9=Minus 8 - Elysian Fields
TTITLE10=purple penguin - memphis
TTITLE11=Thievery Corporation - Focus On Sight
TTITLE12=Minus 8 - Sellafield
TTITLE13=Minus 8 - Neverland
TTITLE14=Thievery Corporation - Air Batacuda
TTITLE15=Phoenix - Embuscade
EXTD=
EXTT0=
EXTT1=
EXTT2=
EXTT3=
EXTT4=
EXTT5=
EXTT6=
EXTT7=
EXTT8=
EXTT9=
EXTT10=
EXTT11=
EXTT12=
EXTT13=
EXTT14=
EXTT15=
PLAYORDER=
